<?xml version="1.0" encoding="utf-8"?>
<!-- Generator: Adobe Illustrator 21.1.0, SVG Export Plug-In . SVG Version: 6.00 Build 0)  -->
<svg version="1.1" id="Layer_1" xmlns="http://www.w3.org/2000/svg" xmlns:xlink="http://www.w3.org/1999/xlink" x="0px" y="0px"
	 viewBox="0 0 225.1 338.1" style="enable-background:new 0 0 225.1 338.1;" xml:space="preserve">
<style type="text/css">
	.st0{fill:#454546;}
</style>
<polygon class="st0" points="134.7,232.7 134.7,320.8 112.6,338.1 90.4,320.8 90.4,232.7 112.6,215.4 "/>
<polygon class="st0" points="177.8,136.4 177.8,228.6 146.4,253 146.4,226.9 122.1,207.9 146.4,188.9 146.4,125.1 "/>
<polygon class="st0" points="103,207.9 78.7,226.9 78.7,253 47.4,228.6 47.4,136.4 78.7,125.1 78.7,188.9 "/>
<g>
	<polygon class="st0" points="225.1,206.4 225.1,251.6 189.5,279.5 189.5,234.3 	"/>
	<polygon class="st0" points="177.8,243.4 177.8,288.7 146.4,313.2 146.4,267.9 	"/>
	<polygon class="st0" points="78.7,267.9 78.7,313.1 47.4,288.7 47.4,243.4 	"/>
	<polygon class="st0" points="35.6,234.3 35.6,279.5 0,251.7 0,206.4 	"/>
	<polygon class="st0" points="35.6,73 35.6,219.4 0,191.6 0,73 	"/>
	<polygon class="st0" points="225.1,0 225.1,61.3 0,61.3 0,0 35.6,0 35.6,25.6 94.8,25.6 94.8,0 130.4,0 130.4,25.6 189.5,25.6 
		189.5,0 	"/>
	<polygon class="st0" points="225.1,73 225.1,191.6 189.5,219.4 189.5,73 	"/>
</g>
<polygon class="st0" points="47.4,73 47.4,100.1 90.4,115.1 90.4,182.5 112.6,199.8 134.7,182.5 134.7,115.1 177.8,100.1 177.8,73 
	"/>
</svg>
